<svg xmlns="http://www.w3.org/2000/svg" xmlns:xlink="http://www.w3.org/1999/xlink" width="537.684" height="305.551" viewBox="0 0 537.684 305.551"><defs><clipPath id="a"><rect width="537.684" height="305.551" fill="none"/></clipPath><clipPath id="c"><rect width="466.987" height="38.056" fill="none"/></clipPath><clipPath id="d"><rect width="272.63" height="15.855" fill="none"/></clipPath><clipPath id="e"><rect width="99.198" height="6.372" fill="none"/></clipPath><clipPath id="f"><rect width="462.29" height="257.309" fill="none"/></clipPath><clipPath id="g"><rect width="375.118" height="208.79" fill="none"/></clipPath><clipPath id="i"><rect width="16.863" height="25.496" fill="none"/></clipPath><clipPath id="k"><rect width="13.557" height="20.498" fill="none"/></clipPath><clipPath id="m"><rect width="21.078" height="31.872" fill="none"/></clipPath><clipPath id="n"><rect width="79.012" height="70.054" transform="translate(0 24.525) rotate(-18.083)" fill="none"/></clipPath><clipPath id="o"><rect width="11.301" height="50.317" fill="none"/></clipPath><clipPath id="p"><rect width="1.547" height="40.159" fill="none"/></clipPath><clipPath id="q"><rect width="4.975" height="10.215" fill="none"/></clipPath><clipPath id="r"><rect width="6.534" height="9.296" fill="none"/></clipPath><clipPath id="u"><rect width="34.766" height="60.113" fill="none"/></clipPath><clipPath id="v"><rect width="24.187" height="47.977" fill="none"/></clipPath><clipPath id="w"><rect width="0.951" height="15.199" fill="none"/></clipPath><clipPath id="x"><rect width="13.258" height="7.432" fill="none"/></clipPath><clipPath id="y"><rect width="13.258" height="7.431" fill="none"/></clipPath><clipPath id="aa"><rect width="49.689" height="28.241" fill="none"/></clipPath><clipPath id="ab"><rect width="39.136" height="22.069" fill="none"/></clipPath><clipPath id="ac"><rect width="7.012" height="10.6" fill="none"/></clipPath><clipPath id="ad"><rect width="12.67" height="1.151" fill="none"/></clipPath><clipPath id="ah"><rect width="211.584" height="130.047" fill="none"/></clipPath><clipPath id="ai"><rect width="18.049" height="30.654" fill="none"/></clipPath><clipPath id="aj"><rect width="13.865" height="25.726" fill="none"/></clipPath><clipPath id="ak"><rect width="28.377" height="47.413" fill="none"/></clipPath><clipPath id="al"><rect width="39.807" height="93.511" fill="none"/></clipPath><clipPath id="am"><rect width="29.941" height="97.48" fill="none"/></clipPath><clipPath id="an"><rect width="46.006" height="59.939" fill="none"/></clipPath><clipPath id="ao"><rect width="4.785" height="7.875" fill="none"/></clipPath><clipPath id="aq"><rect width="71.438" height="80.572" transform="translate(0 69.483) rotate(-76.568)" fill="none"/></clipPath><clipPath id="as"><rect width="61.607" height="61.606" fill="none"/></clipPath><clipPath id="at"><rect width="48.401" height="48.401" transform="matrix(0.99, -0.144, 0.144, 0.99, 0, 6.991)" fill="none"/></clipPath><clipPath id="av"><rect width="39.986" height="39.986" fill="none"/></clipPath><clipPath id="aw"><path d="M604.576,299.883a19.536,19.536,0,0,0,36.244,14.595h0a19.536,19.536,0,1,0-36.244-14.594" transform="translate(-603.156 -287.639)" fill="none"/></clipPath></defs><g clip-path="url(#a)"><g clip-path="url(#a)"><g transform="translate(19.993 267.495)" opacity="0.3" style="mix-blend-mode:multiply;isolation:isolate"><g clip-path="url(#c)"><path d="M492.535,360.851c0,10.509-104.538,19.028-233.494,19.028S25.548,371.36,25.548,360.851s104.538-19.028,233.493-19.028,233.494,8.519,233.494,19.028" transform="translate(-25.548 -341.823)" fill="#baf1ff"/></g></g><g transform="translate(151.78 273.811)" style="mix-blend-mode:multiply;isolation:isolate"><g clip-path="url(#d)"><path d="M466.585,357.821c0,4.378-61.031,7.927-136.315,7.927s-136.316-3.549-136.316-7.927,61.03-7.927,136.316-7.927,136.315,3.549,136.315,7.927" transform="translate(-193.955 -349.894)" fill="#baf1ff"/></g></g><g transform="translate(45.022 283.126)" style="mix-blend-mode:multiply;isolation:isolate"><g clip-path="url(#e)"><path d="M156.731,364.983c0,1.76-22.206,3.186-49.6,3.186s-49.6-1.426-49.6-3.186,22.207-3.186,49.6-3.186,49.6,1.426,49.6,3.186" transform="translate(-57.533 -361.797)" fill="#baf1ff"/></g></g><g transform="translate(24.69)" opacity="0.3" style="mix-blend-mode:multiply;isolation:isolate"><g clip-path="url(#f)"><path d="M345.6,15.506l.091-.022c34.482-8.3,60.9,2.5,74.276,32.682,6.617,14.937,7.869,39.146,25.4,47.467,17.579,8.346,30.356,13.44,39.1,31.619,7.95,16.529,11.41,36.9,8.157,54.755-7.642,41.932-46.089,73.464-92.517,73.464H216.17c-56.748,0-145.273,15.154-175.966-41.538-13.651-25.215-10.817-57.078,6.145-80.518,13.511-18.67,35.374-31.654,59.025-36.44,9.857-1.994,22.509.068,30.675-6.059,7.271-5.454,9.423-15.855,11.576-23.77,4.086-15.013,9.431-30.159,20.087-42.391C186.957,2.667,222.125-5.567,251.093,3.834c16.967,5.507,32.06,16.351,49.913,18.356,15.052,1.693,29.924-3.149,44.6-6.685" transform="translate(-31.551 0)" fill="#baf1ff"/></g></g><g transform="translate(76.227 50.218)" opacity="0.5" style="mix-blend-mode:multiply;isolation:isolate"><g clip-path="url(#g)"><path d="M352.242,76.754l.074-.018c27.98-6.732,49.421,2.031,60.271,26.519,5.37,12.12,6.385,31.765,20.608,38.517,14.264,6.772,24.632,10.906,31.726,25.657,6.451,13.413,9.258,29.943,6.618,44.43-6.2,34.025-37.4,59.612-75.07,59.612H247.214c-46.046,0-117.879,12.3-142.784-33.705-11.078-20.461-8.778-46.315,4.986-65.335,10.963-15.149,28.7-25.685,47.895-29.568,8-1.618,18.264.056,24.891-4.917,5.9-4.425,7.646-12.865,9.393-19.288,3.315-12.181,7.653-24.472,16.3-34.4,15.615-17.924,44.152-24.605,67.657-16.977,13.767,4.468,26.014,13.267,40.5,14.9,12.213,1.373,24.281-2.556,36.188-5.425" transform="translate(-97.408 -64.172)" fill="#baf1ff"/></g></g></g><rect width="85.905" height="85.905" transform="translate(151.716 116.056) rotate(-60.809)" fill="#fbffff"/><rect width="70.055" height="79.012" transform="translate(160.563 106.962) rotate(-60.809)" fill="#b6e6dc"/><rect width="16.137" height="79.021" transform="translate(160.592 106.892) rotate(-60.755)" fill="#ecb112"/><path d="M288.4,131.664l1.584,25.5-24.565-13.755Z" transform="translate(-57.713 -28.63)" fill="#ecb112"/><g clip-path="url(#a)"><g transform="translate(215.404 103.034)" opacity="0.67" style="mix-blend-mode:multiply;isolation:isolate"><g clip-path="url(#i)"><path d="M290.537,131.664l1.584,25.5-16.862-9.442Z" transform="translate(-275.258 -131.664)" fill="#ecb112"/></g></g></g><path d="M247.585,114.276l1.273,20.5-19.749-11.057Z" transform="translate(-49.819 -24.849)" fill="#ecb112"/><g clip-path="url(#a)"><g transform="translate(185.483 89.428)" opacity="0.67" style="mix-blend-mode:multiply;isolation:isolate"><g clip-path="url(#k)"><path d="M249.305,114.276l1.273,20.5-13.557-7.59Z" transform="translate(-237.022 -114.277)" fill="#ecb112"/></g></g></g><path d="M268.015,118.217l1.98,31.872L239.288,132.9Z" transform="translate(-52.032 -25.706)" fill="#ecb112"/><g clip-path="url(#a)"><g transform="translate(196.884 92.511)" opacity="0.67" style="mix-blend-mode:multiply;isolation:isolate"><g clip-path="url(#m)"><path d="M270.69,118.217l1.98,31.872-21.078-11.8Z" transform="translate(-251.592 -118.217)" fill="#ecb112"/></g></g><path d="M261.988,87.207a6.869,6.869,0,1,1-2.637-9.349,6.869,6.869,0,0,1,2.637,9.349" transform="translate(-54.171 -16.739)" fill="#ff6931"/><path d="M448.905,319.652H228.08V182.425a9.241,9.241,0,0,1,9.241-9.241H439.664a9.241,9.241,0,0,1,9.241,9.241Z" transform="translate(-49.595 -37.658)" fill="#141419"/><path d="M232.606,317.093V183.408a5.706,5.706,0,0,1,5.7-5.7H440.648a5.706,5.706,0,0,1,5.7,5.7V317.093Z" transform="translate(-50.579 -38.642)" fill="#00499b"/><path d="M474.961,315.613v2.213h-2.213" transform="translate(-102.797 -68.629)" fill="none" stroke="#fff" stroke-miterlimit="10" stroke-width="1.362"/><line x1="80.48" transform="translate(284.871 249.198)" fill="none" stroke="#fff" stroke-miterlimit="10" stroke-width="1.362" stroke-dasharray="5.877 5.877"/><path d="M360.475,317.827h-2.214v-2.213" transform="translate(-77.902 -68.629)" fill="none" stroke="#fff" stroke-miterlimit="10" stroke-width="1.362"/><line y1="77.506" transform="translate(280.359 165.05)" fill="none" stroke="#fff" stroke-miterlimit="10" stroke-width="1.362" stroke-dasharray="5.66 5.66"/><path d="M358.261,207.466v-2.214h2.214" transform="translate(-77.902 -44.631)" fill="none" stroke="#fff" stroke-miterlimit="10" stroke-width="1.362"/><line x2="80.48" transform="translate(287.171 160.621)" fill="none" stroke="#fff" stroke-miterlimit="10" stroke-width="1.362" stroke-dasharray="5.877 5.877"/><path d="M472.747,205.252h2.213v2.214" transform="translate(-102.797 -44.631)" fill="none" stroke="#fff" stroke-miterlimit="10" stroke-width="1.362"/><line y2="77.506" transform="translate(372.164 167.264)" fill="none" stroke="#fff" stroke-miterlimit="10" stroke-width="1.362" stroke-dasharray="5.66 5.66"/><rect width="85.906" height="85.905" transform="translate(184.547 197.594) rotate(-18.083)" fill="#fbffff"/><rect width="79.012" height="70.055" transform="translate(188.789 199.992) rotate(-18.083)" fill="#b6e6dc"/></g><g transform="translate(188.789 175.468)"><g transform="translate(0 0)" clip-path="url(#n)"><path d="M326.12,315.137S308.4,294.861,316.4,274c5.777-15.058,13.12-11.887,16.334,3.651s-6.614,37.487-6.614,37.487" transform="translate(-257.137 -232.919)" fill="#008eba"/><g transform="translate(57.187 31.302)" opacity="0.41" style="mix-blend-mode:multiply;isolation:isolate"><g clip-path="url(#o)"><path d="M325.625,314.541l-.991-50.317c-2.715-.074-5.633,3-8.233,9.777-7.2,18.773,6.422,37.063,9.224,40.539" transform="translate(-314.324 -264.224)" fill="#008eba"/></g></g><g transform="translate(67.258 38.34)" opacity="0.41" style="mix-blend-mode:multiply;isolation:isolate"><g clip-path="url(#p)"><path d="M327.571,273.218c.36,3.342.58,6.685.75,10.028s.275,6.691.355,10.037c.053,3.347.089,6.694.042,10.042s-.127,6.7-.357,10.05c-.362-3.34-.583-6.685-.753-10.028s-.275-6.69-.354-10.036c-.052-3.348-.087-6.694-.04-10.042s.127-6.7.355-10.051" transform="translate(-327.194 -273.218)" fill="#008eba"/></g></g><g transform="translate(67.937 43.422)" opacity="0.41" style="mix-blend-mode:multiply;isolation:isolate"><g clip-path="url(#q)"><path d="M333.035,279.712a40.359,40.359,0,0,1-2.168,5.263,39.8,39.8,0,0,1-2.807,4.952,45.606,45.606,0,0,1,4.975-10.215" transform="translate(-328.061 -279.712)" fill="#008eba"/></g></g><g transform="translate(61.777 50.37)" opacity="0.41" style="mix-blend-mode:multiply;isolation:isolate"><g clip-path="url(#r)"><path d="M326.723,297.886a45.59,45.59,0,0,1-6.534-9.3,40.045,40.045,0,0,1,3.558,4.444,40.472,40.472,0,0,1,2.976,4.852" transform="translate(-320.189 -288.59)" fill="#008eba"/></g></g><g transform="translate(61.672 61.938)" opacity="0.41" style="mix-blend-mode:multiply;isolation:isolate"><g clip-path="url(#r)"><path d="M326.591,312.669a40.358,40.358,0,0,1-3.557-4.444,39.863,39.863,0,0,1-2.976-4.852,45.567,45.567,0,0,1,6.534,9.3" transform="translate(-320.056 -303.373)" fill="#008eba"/></g></g><g transform="translate(68.328 56.251)" opacity="0.41" style="mix-blend-mode:multiply;isolation:isolate"><g clip-path="url(#q)"><path d="M333.535,296.106a40.473,40.473,0,0,1-2.168,5.263,39.856,39.856,0,0,1-2.807,4.952,39.858,39.858,0,0,1,2.168-5.263,40.317,40.317,0,0,1,2.807-4.952" transform="translate(-328.561 -296.106)" fill="#008eba"/></g></g><path d="M316.6,312.708s-33.108-14.2-35.524-43.993c-1.744-21.5,8.948-21.926,21.813-5.047s13.711,49.04,13.711,49.04" transform="translate(-249.866 -230.204)" fill="#008eba"/><g transform="translate(31.02 21.955)" opacity="0.41" style="mix-blend-mode:multiply;isolation:isolate"><g clip-path="url(#u)"><path d="M315.652,312.393l-30.305-60.112c-3.319,1.481-5.058,6.876-4.274,16.555,2.174,26.809,29.188,40.985,34.579,43.557" transform="translate(-280.886 -252.28)" fill="#008eba"/></g></g><g transform="translate(39.719 30.363)" opacity="0.41" style="mix-blend-mode:multiply;isolation:isolate"><g clip-path="url(#v)"><path d="M292,263.024c2.367,3.821,4.567,7.726,6.707,11.662s4.2,7.91,6.235,11.9c2,4.007,3.98,8.022,5.861,12.089s3.722,8.152,5.384,12.328c-2.369-3.82-4.569-7.725-6.71-11.661s-4.2-7.909-6.232-11.9c-2-4.007-3.979-8.023-5.859-12.089S293.666,267.2,292,263.024" transform="translate(-292.002 -263.024)" fill="#008eba"/></g></g><g transform="translate(48.502 33.439)" opacity="0.41" style="mix-blend-mode:multiply;isolation:isolate"><g clip-path="url(#w)"><path d="M303.746,266.955a54.1,54.1,0,0,1,.43,7.6,53.3,53.3,0,0,1-.521,7.6,53.393,53.393,0,0,1-.43-7.6,53.977,53.977,0,0,1,.52-7.6" transform="translate(-303.226 -266.955)" fill="#008eba"/></g></g><g transform="translate(39.612 48.261)" opacity="0.41" style="mix-blend-mode:multiply;isolation:isolate"><g clip-path="url(#x)"><path d="M305.124,293.327a53.936,53.936,0,0,1-6.861-3.3,53.267,53.267,0,0,1-6.4-4.13,53.255,53.255,0,0,1,6.861,3.3,53.876,53.876,0,0,1,6.4,4.13" transform="translate(-291.866 -285.895)" fill="#008eba"/></g></g><g transform="translate(46.18 62.273)" opacity="0.41" style="mix-blend-mode:multiply;isolation:isolate"><g clip-path="url(#y)"><path d="M313.517,311.232a60.969,60.969,0,0,1-13.258-7.431,53.316,53.316,0,0,1,6.861,3.3,53.974,53.974,0,0,1,6.4,4.13" transform="translate(-300.259 -303.801)" fill="#008eba"/></g></g><g transform="translate(56.396 48.686)" opacity="0.41" style="mix-blend-mode:multiply;isolation:isolate"><g clip-path="url(#w)"><path d="M313.833,286.438a54.1,54.1,0,0,1,.43,7.6,53.387,53.387,0,0,1-.521,7.6,53.4,53.4,0,0,1-.43-7.6,53.985,53.985,0,0,1,.52-7.6" transform="translate(-313.313 -286.438)" fill="#008eba"/></g></g><path d="M315.082,322.892s-29.609,5.548-45.156-14.024c-11.221-14.125-3.992-19.4,12.8-13.66s32.353,27.684,32.353,27.684" transform="translate(-246.309 -239.163)" fill="#008eba"/><g transform="translate(18.226 56.215)" opacity="0.41" style="mix-blend-mode:multiply;isolation:isolate"><g clip-path="url(#aa)"><path d="M314.226,323.711,265.191,296.06c-1.615,2.574-.313,7.131,4.738,13.49,13.989,17.611,39.354,14.885,44.3,14.161" transform="translate(-264.537 -296.06)" fill="#008eba"/></g></g><g transform="translate(25.738 60.083)" opacity="0.41" style="mix-blend-mode:multiply;isolation:isolate"><g clip-path="url(#ab)"><path d="M274.137,301c3.423,1.552,6.768,3.241,10.087,4.979s6.6,3.538,9.871,5.364c3.255,1.851,6.5,3.719,9.7,5.669s6.38,3.93,9.479,6.058c-3.424-1.55-6.771-3.239-10.089-4.976s-6.6-3.539-9.87-5.366c-3.254-1.853-6.5-3.722-9.7-5.671s-6.38-3.929-9.48-6.055" transform="translate(-274.137 -301.002)" fill="#008eba"/></g></g><g transform="translate(33.634 57.889)" opacity="0.41" style="mix-blend-mode:multiply;isolation:isolate"><g clip-path="url(#ac)"><path d="M284.226,298.2a45.223,45.223,0,0,1,3.838,5.081,44.642,44.642,0,0,1,3.174,5.519,51.057,51.057,0,0,1-7.012-10.6" transform="translate(-284.226 -298.198)" fill="#008eba"/></g></g><g transform="translate(33.996 71.486)" opacity="0.41" style="mix-blend-mode:multiply;isolation:isolate"><g clip-path="url(#ad)"><path d="M297.359,315.643a45.2,45.2,0,0,1-6.3.9,44.5,44.5,0,0,1-6.366.109,51.031,51.031,0,0,1,12.67-1.01" transform="translate(-284.689 -315.573)" fill="#008eba"/></g></g><g transform="translate(45.081 78.162)" opacity="0.41" style="mix-blend-mode:multiply;isolation:isolate"><g clip-path="url(#ad)"><path d="M311.524,324.176a45.22,45.22,0,0,1-6.3.9,44.616,44.616,0,0,1-6.366.109,44.5,44.5,0,0,1,6.3-.9,44.968,44.968,0,0,1,6.366-.109" transform="translate(-298.854 -324.106)" fill="#008eba"/></g></g><g transform="translate(46.214 64.805)" opacity="0.41" style="mix-blend-mode:multiply;isolation:isolate"><g clip-path="url(#ac)"><path d="M300.3,307.037a45.132,45.132,0,0,1,3.838,5.08,44.626,44.626,0,0,1,3.175,5.519,44.543,44.543,0,0,1-3.838-5.08,45.194,45.194,0,0,1-3.175-5.519" transform="translate(-300.302 -307.037)" fill="#008eba"/></g></g></g></g><g clip-path="url(#a)"><path d="M441.11,358.235H223a15.159,15.159,0,0,1-15.16-15.16H456.27a15.159,15.159,0,0,1-15.16,15.16" transform="translate(-45.194 -74.6)" fill="#282630"/><g transform="translate(178.485 135.526)" opacity="0.3" style="mix-blend-mode:screen;isolation:isolate"><g clip-path="url(#ah)"><path d="M228.08,303.231V182.424a9.241,9.241,0,0,1,9.241-9.241H439.664Z" transform="translate(-228.08 -173.184)" fill="#00499b"/></g></g><path d="M455.445,140.849l-50.13-50.068a5.432,5.432,0,0,0-7.678,0l-50.13,50.068a5.433,5.433,0,0,0,3.84,9.277h8.221A5.433,5.433,0,0,1,365,155.56v44.025a5.433,5.433,0,0,0,5.433,5.433h62.084a5.433,5.433,0,0,0,5.433-5.433V155.56a5.433,5.433,0,0,1,5.433-5.433h8.221a5.433,5.433,0,0,0,3.839-9.277" transform="translate(-75.215 -19.394)" fill="#fcba00"/><path d="M137.672,110.4h3.2l1.348,1.107a1.91,1.91,0,0,1,.552,2.247,3.855,3.855,0,0,1-2.752,2.4c-2.665.48-5.807-3.754-5.807-3.754Z" transform="translate(-29.183 -24.006)" fill="#000008"/><path d="M131.458,130.941l-4.083,5.6s.412,7.262,2.572,10.315c0,0-11.812.639-16.538-5.145,0,0,4.788-9.426,2.763-17.59s7.3-7.9,7.3-7.9l4.785,5.937Z" transform="translate(-24.66 -25.271)" fill="#f9af9a"/><g transform="translate(88.749 90.948)" opacity="0.5" style="mix-blend-mode:multiply;isolation:isolate"><g clip-path="url(#ai)"><path d="M131.458,130.941l-4.138,4.6s.468,8.258,2.628,11.311c0,0-11.812.639-16.538-5.145,0,0,4.788-9.426,2.763-17.59s7.3-7.9,7.3-7.9l4.785,5.937Z" transform="translate(-113.409 -116.22)" fill="#f9af9a"/></g></g><path d="M127.246,110.414c4.439-.62,7.968,1.14,10.371,6.616,1.436,3.272.066,6.625,1.311,8.365.82,1.146,1.416.942,1.02,1.6a2.315,2.315,0,0,1-1.642.973s-1.372,6.567-5.38,7.788c-3.608,1.1-10.434-1.5-12.5-6.875-1.268-3.3-3.358-17.045,6.818-18.464" transform="translate(-25.951 -23.983)" fill="#f9af9a"/><g transform="translate(93.395 86.316)" opacity="0.5" style="mix-blend-mode:multiply;isolation:isolate"><g clip-path="url(#aj)"><path d="M127.246,110.415a10.2,10.2,0,0,1,3.489.073c-6.582,2.779-5.092,14.334-4.021,17.2,1.377,3.679,3.336,7.066,6.5,7.952-.1.037-.187.084-.286.114-3.608,1.1-9.723-1.153-12.317-6.511-1.542-3.184-3.538-17.409,6.638-18.828" transform="translate(-119.346 -110.3)" fill="#f9af9a"/></g></g><path d="M122.23,118.915s-.1-4.19-3.218-3.339-3.744,8.939,1.865,9.038" transform="translate(-25.366 -25.107)" fill="#f9af9a"/><path d="M121.74,152.338l8.139-2.424,20.233,25.632,22.243-2.492s-21.8,24.186-29.977,24.186-20.638-15.356-20.638-15.356Z" transform="translate(-26.472 -32.598)" fill="#ff6931"/><g transform="translate(95.268 117.18)" opacity="0.3" style="mix-blend-mode:multiply;isolation:isolate"><g clip-path="url(#ak)"><path d="M121.74,152.253l7.874-2.513,20.5,25.768s.441,21.645-7.734,21.645S121.74,181.8,121.74,181.8Z" transform="translate(-121.74 -149.74)" fill="#fcac54"/></g></g><path d="M108.668,138.7s5.263,7.609,14.2,8.182c0,0,7.721,13.162,9.538,39.707.576,8.411,1.051,31.091,1.051,31.091s-36.574,6.8-45.005-2.649c0,0,2.013-16.649,4.077-30.633,5.878-39.792,16.135-45.7,16.135-45.7" transform="translate(-19.234 -30.159)" fill="#ff6931"/><path d="M145.877,325.89c-.988-.023-1.357-1.37-1.49-2.556l.007,0s.169-52.613-.156-59.021c-.25-4.927-20.51-39.244-20.51-39.244l-12.758-1.237s-16.495-19.012-18.173-.046,26.64,36.948,30.743,40.1.107,13.062.643,20.773c.5,7.159,11.938,43.019,11.938,43.019l-.761-2.431c.859,2.586.761,6.066,1.949,7.9,1.99,3.064,22.029-.006,24.528-2.222s-14.188-4.993-15.96-5.033" transform="translate(-20.163 -46.831)" fill="#f9af9a"/><path d="M124.183,284.662c.338,4.871,3.185,15.2,5.917,24.218,5.607-1,10.731-1.58,14.482-2.714.132-16.242.2-38.855-.344-41.854-.88-4.853-20.51-39.243-20.51-39.243l-12.758-1.237s-16.494-19.012-18.172-.046,26.64,36.948,30.742,40.1.107,13.062.643,20.773" transform="translate(-20.163 -46.831)" fill="#00ccd4"/><path d="M149.294,364.371c2.171,2.938,21.814-.982,24.528-2.93,4.535-3.255-15.177-5.686-16.948-5.727,0,0-2.487,2.377-9.034,2.484.563,1.923.265,4.564,1.454,6.173" transform="translate(-32.147 -77.348)" fill="#080022"/><g transform="translate(72.563 168.538)" opacity="0.3" style="mix-blend-mode:multiply;isolation:isolate"><g clip-path="url(#al)"><path d="M129.24,285.086c.211-7.727,5.144-17.2,1.366-20.738s-30.229-24.168-26.727-42.883a21.441,21.441,0,0,1,.877-3.331c-4.865-3.521-10.971-5.5-11.957,5.652-1.679,18.967,26.64,36.948,30.742,40.1s.108,13.062.643,20.773c.338,4.871,3.185,15.2,5.916,24.218.823-.147,1.635-.284,2.435-.416-1.757-8.913-3.421-18.723-3.294-23.377" transform="translate(-92.726 -215.369)" fill="#00ccd4"/></g></g><path d="M109.91,270.292c2.013-4.5,5.217-43.971,5.217-43.971l-9.834-8.221s-2.885-25-14.976-10.3,1.139,45.537,2.744,50.456S85.778,269.1,81.868,275.772c-4.881,8.324-8.249,25.8-12.766,36.984-1,1.538-2.208,3.269-3.651,5.126-2.241,2.886,12.284,2.837,11.126,1.5-.392-.454.139-1.7,1-3.145,5.852-8.021,30.556-41.972,32.33-45.941" transform="translate(-14.181 -44.178)" fill="#f9af9a"/><path d="M107.637,218.1s-2.885-25-14.976-10.294,1.139,45.536,2.744,50.455S88.123,269.1,84.211,275.771c-3.127,5.333-5.634,14.421-8.218,23.206a106.991,106.991,0,0,0,11.834,6.378c9.486-13.109,23.125-32.152,24.427-35.064,2.013-4.5,5.217-43.971,5.217-43.971Z" transform="translate(-16.524 -44.178)" fill="#00ccd4"/><path d="M79.685,360.9c3.117.347-1.07-9.825-3-12.461L69.1,343.206c-1,1.538-2.208,3.27-3.651,5.126-2.242,2.886,10.921,12.2,14.24,12.569" transform="translate(-14.175 -74.629)" fill="#080022"/><g transform="translate(59.468 158.991)" opacity="0.3" style="mix-blend-mode:multiply;isolation:isolate"><g clip-path="url(#am)"><path d="M89.264,278.512c4.566-6.238,14.01-11.229,12.912-16.286s-11.13-37.067,2.391-50.474c.472-.468.926-.884,1.366-1.261-1.963-5.88-5.911-11.642-13.271-2.687-12.09,14.709,1.139,45.536,2.744,50.455S88.122,269.1,84.211,275.771c-3.127,5.333-5.634,14.421-8.218,23.205.88.545,1.812,1.106,2.787,1.672,3.447-8.441,6.848-17.171,10.484-22.136" transform="translate(-75.993 -203.169)" fill="#00ccd4"/></g></g><rect width="87.601" height="87.601" transform="translate(58.027 141.658) rotate(-6.03)" fill="#fbffff"/><rect width="80.572" height="71.437" transform="translate(61.746 144.952) rotate(-6.03)" fill="#b6e6dc"/><path d="M87.122,252.028s9.588-21.451,14.673-14.488,8.2,10.665,11.831-1.249,5.778-32.8,15.322-19.675,12.295,28.879,17.176,23.607,14.237-6.262,21.124,3.342l1.073,10.158-80.126,8.463Z" transform="translate(-18.944 -46.192)" fill="#007577"/><path d="M166.628,197.611a9.193,9.193,0,1,1-10.107-8.176,9.192,9.192,0,0,1,10.107,8.176" transform="translate(-32.246 -41.18)" fill="#ecb112"/><g transform="translate(81.648 125.835)" style="mix-blend-mode:multiply;isolation:isolate"><g clip-path="url(#an)"><path d="M149.124,217.855c1.471.606,1.263.108.982-.5-.362-.788-1.6-1.459-3.777-2.52-2.11-1.028-3.752-2.144-3.564-2.473.106-.188.286-.347,1.128-.064,1.731.583,2.417.686,3.489.293s.379-1.017-.706-1.063a6.305,6.305,0,0,1-2.9-1.036c-1.707-1.055-5.675-3.083-7.468-2.916a2.527,2.527,0,0,1-1.42-.7,16.638,16.638,0,0,0,.809-1.906l-10.114-17.507-1.35-16.371c.575-11.063-16.524-14.7-18.993-3.406-2.161,9.891-.266,26.883,3.763,32.342,2.435,3.3,23.808,12.678,23.808,12.678.62,2.424,3.582,4.47,5.8,6.1s4.14,2.141,4.846,1.8-.545-.932-1.934-1.632-1.986-1.507-1.622-1.77.863.462,2.28,1.41,2.238,1.843,3.82,2.083,1.479-.524.612-.862c-.839-.326-3.9-2.161-3.558-2.618s2.831,1.79,4.647,2.42,2.517.484,2.633-.081c.167-.822-1.636-1.056-2.959-1.655s-3.484-1.789-2.9-2.212,3.187,1.565,4.658,2.17" transform="translate(-104.335 -160.8)" fill="#b6e6dc"/></g></g><path d="M127.429,207.04c-2.291-7.8,3.828-2.072,4.864-.425,3.407,5.419,6.53,9,7.663,8.961,1.8-.063,5.644,2.194,7.286,3.346a6.305,6.305,0,0,0,2.838,1.2c1.08.109,1.736.771.642,1.1s-1.772.187-3.467-.5c-.822-.332-1.012-.182-1.128,0-.207.318,1.367,1.527,3.414,2.676,2.112,1.187,3.307,1.927,3.623,2.736.245.627.423,1.136-1.01.445s-3.921-2.827-4.524-2.438,1.485,1.7,2.77,2.377,3.074,1.013,2.857,1.825c-.148.556-.857.663-2.632-.071s-4.133-3.124-4.5-2.687,2.581,2.446,3.4,2.82c.846.388.9,1.156-.66.824s-2.334-1.272-3.693-2.3-1.808-1.787-2.2-1.54.171,1.081,1.517,1.861,2.561,1.439,1.836,1.743-2.618-.319-4.734-2.075-4.954-3.971-5.431-6.427c0,0-1.766-.919-9.384-5.275-18.236-10.431-3.024-6.89.645-8.182" transform="translate(-25.657 -44.151)" fill="#f9af9a"/><path d="M124.987,160.828l-1.614,24.61,12.676,18.408a9.472,9.472,0,0,0-3.716,5.936s-19.741-10.651-21.98-14.085c-3.705-5.684-6.869-22.89-4.135-32.639,3.121-11.131,19.988-13.24,18.77-2.229" transform="translate(-22.872 -33.391)" fill="#ff6931"/><path d="M131.584,114.2c4.05.852,4.039-2.582,7.7-2.7a1.731,1.731,0,0,1,1.4,2.816,5.012,5.012,0,0,1-1.437,1.153,5.318,5.318,0,0,0,2.529-2.92c.589-1.6-.9-4.372-3.887-4.656a13.257,13.257,0,0,0-8.811,2.842s-2.557,2.4,2.5,3.464" transform="translate(-27.927 -23.452)" fill="#01001e"/><path d="M129.65,112.976a2.835,2.835,0,0,1,.4,2.888c-2.185,4.362-7.266,1.793-8.619,7.491-1.538,6.483-7.752-17.342,11.006-13.195Z" transform="translate(-25.922 -23.848)" fill="#01001e"/><path d="M126.817,109.473l-1.778-1.033a4.2,4.2,0,0,1-.477-.329,14.042,14.042,0,0,0-10.23-1.1c-6.389,1.974-11.529,6.7-11.813,17.744S90.36,137.14,85.882,144.2c-5.1,8.038-.672,21.042,15.812,18.443s17.053-22.305,14.89-33.209c-1.219-6.146-3.994-11.04-1.215-11.784s2.945-4.24,2.945-4.24Z" transform="translate(-18.239 -23.156)" fill="#01001e"/><path d="M125.3,122.415s-.911-3.615-3.449-2.262-1.488,8.491,3.4,7.473" transform="translate(-26.205 -26.061)" fill="#f9af9a"/><g transform="translate(94.306 93.788)" opacity="0.5" style="mix-blend-mode:multiply;isolation:isolate"><g clip-path="url(#ao)"><path d="M125.3,122.415s-.911-3.615-3.449-2.262-1.488,8.491,3.4,7.473" transform="translate(-120.511 -119.849)" fill="#f9af9a"/></g></g><path d="M170.518,172.661s-.569.234-1.489-.421-2.478-2.139-4.311-1.39l-.305-.013a2.85,2.85,0,0,1,.786-1.217l0,0a1.87,1.87,0,0,1,.865-.4,1.8,1.8,0,0,1,.677.016,2.006,2.006,0,0,1,1.057-.535,2.434,2.434,0,0,1,1.107.1,2.753,2.753,0,0,1,2.1-.455,1.856,1.856,0,0,1,.317.086c.117-.142.4-.256,1.061-.227,1.038.044,3.182,1.912,2.6,2.417a1.344,1.344,0,0,1-.941-.421,5.828,5.828,0,0,0-1.153-.779c1.048.9,1.9,2.121,1.4,2.653,0,0-.534.109-1.223-.614a9.722,9.722,0,0,0-1.732-1.368c1.1.848,1.889,1.876,1.5,2.5,0,0-.644.265-1.686-.477-.275-.195-.6-.455-.968-.717.371.473.538.929.331,1.258" transform="translate(-35.751 -36.575)" fill="#f9af9a"/><path d="M73.443,353.513H67.172l8.78,8.566s11.952,1.625,11.7,0-7.272-5.348-7.272-5.348l-3.258-6.836Z" transform="translate(-14.606 -76.083)" fill="#080022"/></g><text transform="translate(291.304 225.127)" fill="#ecb112" font-size="14" font-family="Montserrat-Regular, Montserrat"><tspan x="0" y="0">U</tspan><tspan y="0" letter-spacing="-0.009em">P</tspan><tspan y="0" letter-spacing="-0.013em">L</tspan><tspan y="0" letter-spacing="-0.009em">O</tspan><tspan y="0">AD</tspan></text><g clip-path="url(#a)"><rect width="87.601" height="87.601" transform="translate(370.378 237.337) rotate(-76.568)" fill="#fbffff"/></g><g transform="translate(376.541 156.478)"><g transform="translate(0 0)" clip-path="url(#aq)"><rect width="71.438" height="80.572" transform="translate(-0.001 69.483) rotate(-76.567)" fill="#b6e6dc"/><path d="M579.965,241.565a9.193,9.193,0,1,1-6.805-11.076,9.192,9.192,0,0,1,6.805,11.076" transform="translate(-498.709 -206.542)" fill="#ff6931"/><path d="M475.638,262.948s6.577-7.835,22.381,5.346c11.969,9.982,22.531-2.7,35.7,9.329,10.622,9.7,20.941-9.873,35.081,8.977,8.988,11.982-38.147,36.221-38.147,36.221L460.511,293.2Z" transform="translate(-476.677 -213.153)" fill="#008eba"/><path d="M539.207,270.679s-2.846,8.6-10.925,7.981c0,0-10.251.737-16.009-2.913-1.456-.923-3.486-6.584-3.486-6.584s16.916.737,30.421,1.515" transform="translate(-487.175 -215.007)" fill="#007877"/><path d="M531.5,239.12a35.808,35.808,0,0,1,8.237,23.257l-13.189.164Z" transform="translate(-491.036 -208.474)" fill="#fbffff"/><path d="M526.7,243.262l-4.011,19.917-8.835-.464s3.741-15.664,12.846-19.453" transform="translate(-488.276 -209.375)" fill="#fbffff"/><path d="M467.044,265.216s10.11-4.261,22.382,5.346,20.891-2.552,34.253,8.181c11.216,9.008,25.388-3.788,34.729,7.92s-36.346,38.425-36.346,38.425l-70.144-29.617Z" transform="translate(-474.809 -213.944)" fill="#008eba"/></g></g><g clip-path="url(#a)"><path d="M514.444,221.132a2.986,2.986,0,1,1-2.211-3.6,2.987,2.987,0,0,1,2.211,3.6" transform="translate(-110.582 -47.284)" fill="#fbffff"/><path d="M530.565,223.708a3.822,3.822,0,1,1-2.83-4.606,3.823,3.823,0,0,1,2.83,4.606" transform="translate(-113.729 -47.62)" fill="#fbffff"/><path d="M523.97,220.857a4.658,4.658,0,1,1-3.449-5.613,4.658,4.658,0,0,1,3.449,5.613" transform="translate(-111.937 -46.776)" fill="#fbffff"/><path d="M555.4,245.071a2.389,2.389,0,1,1-1.769-2.879,2.39,2.39,0,0,1,1.769,2.879" transform="translate(-119.744 -52.649)" fill="#fbffff"/><path d="M568.295,247.13a3.058,3.058,0,1,1-2.264-3.684,3.058,3.058,0,0,1,2.264,3.684" transform="translate(-122.261 -52.918)" fill="#fbffff"/><path d="M563.02,244.85a3.727,3.727,0,1,1-2.759-4.49,3.726,3.726,0,0,1,2.759,4.49" transform="translate(-120.827 -52.243)" fill="#fbffff"/><path d="M581.757,227.638a1.433,1.433,0,1,1-1.061-1.727,1.433,1.433,0,0,1,1.061,1.727" transform="translate(-125.886 -49.115)" fill="#fbffff"/><path d="M589.5,228.875a1.835,1.835,0,1,1-1.358-2.211,1.834,1.834,0,0,1,1.358,2.211" transform="translate(-127.396 -49.276)" fill="#fbffff"/><path d="M586.33,227.506a2.236,2.236,0,1,1-1.655-2.694,2.236,2.236,0,0,1,1.655,2.694" transform="translate(-126.536 -48.871)" fill="#fbffff"/><g transform="translate(98.218 8.394)" style="mix-blend-mode:multiply;isolation:isolate"><g clip-path="url(#as)"><rect width="45.099" height="45.099" transform="matrix(0.866, -0.5, 0.5, 0.866, 0, 22.549)" fill="#baf1ff"/></g></g><rect width="31.062" height="31.062" transform="matrix(0.659, -0.752, 0.752, 0.659, 324.512, 34.547)" fill="#fbffff"/><rect width="19.418" height="19.418" transform="matrix(0.929, -0.37, 0.37, 0.929, 59.949, 64.374)" fill="#fbffff"/></g><g transform="translate(400.088 55.21)"><g transform="translate(0 0)" clip-path="url(#at)"><line x1="70.477" y2="51.786" transform="translate(-23.538 -28.384)" fill="none" stroke="#ecb112" stroke-miterlimit="10" stroke-width="1.459"/><line x1="70.478" y2="51.787" transform="translate(-21.22 -24.698)" fill="none" stroke="#ecb112" stroke-miterlimit="10" stroke-width="1.459"/><line x1="70.478" y2="51.787" transform="translate(-18.902 -21.011)" fill="none" stroke="#ecb112" stroke-miterlimit="10" stroke-width="1.459"/><line x1="70.477" y2="51.786" transform="translate(-16.584 -17.324)" fill="none" stroke="#ecb112" stroke-miterlimit="10" stroke-width="1.459"/><line x1="70.478" y2="51.786" transform="translate(-14.266 -13.637)" fill="none" stroke="#ecb112" stroke-miterlimit="10" stroke-width="1.459"/><line x1="70.478" y2="51.786" transform="translate(-11.948 -9.951)" fill="none" stroke="#ecb112" stroke-miterlimit="10" stroke-width="1.459"/><line x1="70.478" y2="51.787" transform="translate(-9.629 -6.264)" fill="none" stroke="#ecb112" stroke-miterlimit="10" stroke-width="1.459"/><line x1="70.478" y2="51.787" transform="translate(-7.311 -2.578)" fill="none" stroke="#ecb112" stroke-miterlimit="10" stroke-width="1.459"/><line x1="70.478" y2="51.787" transform="translate(-4.994 1.109)" fill="none" stroke="#ecb112" stroke-miterlimit="10" stroke-width="1.459"/><line x1="70.478" y2="51.786" transform="translate(-2.675 4.796)" fill="none" stroke="#ecb112" stroke-miterlimit="10" stroke-width="1.459"/><line x1="70.478" y2="51.786" transform="translate(-0.357 8.482)" fill="none" stroke="#ecb112" stroke-miterlimit="10" stroke-width="1.459"/><line x1="70.478" y2="51.786" transform="translate(1.961 12.169)" fill="none" stroke="#ecb112" stroke-miterlimit="10" stroke-width="1.459"/><line x1="70.478" y2="51.787" transform="translate(4.279 15.855)" fill="none" stroke="#ecb112" stroke-miterlimit="10" stroke-width="1.459"/><line x1="70.478" y2="51.787" transform="translate(6.597 19.542)" fill="none" stroke="#ecb112" stroke-miterlimit="10" stroke-width="1.459"/><line x1="70.478" y2="51.786" transform="translate(8.915 23.229)" fill="none" stroke="#ecb112" stroke-miterlimit="10" stroke-width="1.459"/><line x1="70.478" y2="51.786" transform="translate(11.234 26.916)" fill="none" stroke="#ecb112" stroke-miterlimit="10" stroke-width="1.459"/><line x1="70.478" y2="51.786" transform="translate(13.551 30.602)" fill="none" stroke="#ecb112" stroke-miterlimit="10" stroke-width="1.459"/></g></g><g clip-path="url(#a)"><g transform="translate(0 176.212)" style="mix-blend-mode:multiply;isolation:isolate"><g clip-path="url(#av)"><path d="M39.986,245.169a19.993,19.993,0,1,1-19.993-19.993,19.993,19.993,0,0,1,19.993,19.993" transform="translate(0 -225.176)" fill="#baf1ff"/></g></g><rect width="37.1" height="37.1" transform="translate(4.021 230.947) rotate(-68.068)" fill="none" stroke="#00499b" stroke-miterlimit="10" stroke-width="0.596" stroke-dasharray="2.979 2.979"/></g><g transform="translate(472.003 225.093)"><g clip-path="url(#aw)"><line x2="65.625" y2="26.034" transform="translate(-20.763 28.044)" fill="none" stroke="#ecb112" stroke-miterlimit="10" stroke-width="1.064"/><line x2="65.625" y2="26.033" transform="translate(-19.471 25.478)" fill="none" stroke="#ecb112" stroke-miterlimit="10" stroke-width="1.064"/><line x2="65.625" y2="26.033" transform="translate(-18.18 22.912)" fill="none" stroke="#ecb112" stroke-miterlimit="10" stroke-width="1.064"/><line x2="65.624" y2="26.033" transform="translate(-16.887 20.345)" fill="none" stroke="#ecb112" stroke-miterlimit="10" stroke-width="1.064"/><line x2="65.624" y2="26.033" transform="translate(-15.596 17.779)" fill="none" stroke="#ecb112" stroke-miterlimit="10" stroke-width="1.064"/><line x2="65.624" y2="26.033" transform="translate(-14.304 15.213)" fill="none" stroke="#ecb112" stroke-miterlimit="10" stroke-width="1.064"/><line x2="65.624" y2="26.033" transform="translate(-13.013 12.647)" fill="none" stroke="#ecb112" stroke-miterlimit="10" stroke-width="1.064"/><line x2="65.624" y2="26.034" transform="translate(-11.721 10.08)" fill="none" stroke="#ecb112" stroke-miterlimit="10" stroke-width="1.064"/><line x2="65.624" y2="26.034" transform="translate(-10.43 7.514)" fill="none" stroke="#ecb112" stroke-miterlimit="10" stroke-width="1.064"/><line x2="65.624" y2="26.034" transform="translate(-9.138 4.947)" fill="none" stroke="#ecb112" stroke-miterlimit="10" stroke-width="1.064"/><line x2="65.624" y2="26.034" transform="translate(-7.847 2.381)" fill="none" stroke="#ecb112" stroke-miterlimit="10" stroke-width="1.064"/><line x2="65.624" y2="26.033" transform="translate(-6.555 -0.185)" fill="none" stroke="#ecb112" stroke-miterlimit="10" stroke-width="1.064"/><line x2="65.624" y2="26.033" transform="translate(-5.264 -2.751)" fill="none" stroke="#ecb112" stroke-miterlimit="10" stroke-width="1.064"/><line x2="65.624" y2="26.033" transform="translate(-3.972 -5.318)" fill="none" stroke="#ecb112" stroke-miterlimit="10" stroke-width="1.064"/><line x2="65.624" y2="26.033" transform="translate(-2.681 -7.884)" fill="none" stroke="#ecb112" stroke-miterlimit="10" stroke-width="1.064"/><line x2="65.624" y2="26.033" transform="translate(-1.389 -10.45)" fill="none" stroke="#ecb112" stroke-miterlimit="10" stroke-width="1.064"/><line x2="65.624" y2="26.034" transform="translate(-0.098 -13.017)" fill="none" stroke="#ecb112" stroke-miterlimit="10" stroke-width="1.064"/></g></g><g clip-path="url(#a)"><rect width="29.277" height="29.276" transform="translate(75.518 46.168) rotate(-68.067)" fill="none" stroke="#00499b" stroke-miterlimit="10" stroke-width="0.724" stroke-dasharray="2.979 2.979"/><rect width="35.566" height="35.567" transform="translate(440.095 94.86) rotate(-27.045)" fill="none" stroke="#00499b" stroke-miterlimit="10" stroke-width="0.879" stroke-dasharray="3.619 3.619"/></g></g></svg>